<svg xmlns="http://www.w3.org/2000/svg" fill="none" class="app-pool__content-link-icon" viewBox="0 0 17 16"><path fill="gray" fill-rule="evenodd" d="M13.5 4.062V6.75a.75.75 0 0 0 1.5 0V2.729c0-.097 0-.232-.016-.352a1 1 0 0 0-.277-.583 1 1 0 0 0-.583-.277 3 3 0 0 0-.351-.016H9.75a.75.75 0 0 0 0 1.5h2.69l-4.72 4.72a.75.75 0 0 0 1.06 1.06zM6.35 1.5h-.031c-.604 0-1.102 0-1.508.033-.421.035-.809.109-1.173.294a3 3 0 0 0-1.311 1.311c-.185.364-.26.752-.294 1.173C2 4.718 2 5.216 2 5.82v4.362c0 .604 0 1.102.033 1.508.035.422.109.809.294 1.173a3 3 0 0 0 1.311 1.311c.364.186.752.26 1.173.294.406.033.904.033 1.508.033h4.362c.604 0 1.102 0 1.508-.033.421-.035.809-.108 1.173-.294a3 3 0 0 0 1.311-1.311c.185-.364.26-.751.294-1.173.033-.406.033-.904.033-1.508v-.431a.75.75 0 0 0-1.5 0v.4c0 .643 0 1.08-.028 1.417-.027.329-.076.497-.136.614a1.5 1.5 0 0 1-.655.656c-.117.06-.285.108-.614.135-.338.027-.775.028-1.417.028h-4.3c-.642 0-1.08 0-1.417-.028-.329-.027-.497-.076-.614-.136a1.5 1.5 0 0 1-.656-.655c-.06-.117-.108-.286-.135-.614-.027-.338-.028-.774-.028-1.417v-4.3c0-.642 0-1.08.028-1.417.027-.329.076-.497.135-.614a1.5 1.5 0 0 1 .656-.655c.117-.06.285-.109.614-.136.338-.027.775-.028 1.417-.028h.4a.75.75 0 1 0 0-1.5z" clip-rule="evenodd"/></svg>